HIERARCHY
ROOT pelvis
{
  OFFSET 0 100 0
  CHANNELS 6 Xposition Yposition Zposition Zrotation Xrotation Yrotation
  JOINT pelvis_right_femur
  {
    OFFSET -10.78128 -3.44521 -0.5502486
    CHANNELS 3 Zrotation Xrotation Yrotation
    JOINT right_femur_tibia
    {
      OFFSET -0.8047443 -44.0398 -0.1307829
      CHANNELS 3 Zrotation Xrotation Yrotation
      JOINT right_tibia_foot
      {
        OFFSET 3.006224 -47.83518 -5
        CHANNELS 3 Zrotation Xrotation Yrotation
        End Site
        {
          OFFSET 0 -5 15
        }
      }
    }
  }
  JOINT pelvis_left_femur
  {
    OFFSET 10.78128 -3.44521 -0.5502486
    CHANNELS 3 Zrotation Xrotation Yrotation
    JOINT left_femur_tibia
    {
      OFFSET 0.8047443 -44.0398 -0.1307829
      CHANNELS 3 Zrotation Xrotation Yrotation
      JOINT left_tibia_foot
      {
        OFFSET -4.370144 -48.10324 -4.275266
        CHANNELS 3 Zrotation Xrotation Yrotation
        End Site
        {
          OFFSET 0 -5 15
        }
      }
    }
  }
  JOINT pelvis_spine1
  {
    OFFSET 0 6.468898 -3.129235
    CHANNELS 3 Zrotation Xrotation Yrotation
    JOINT spine1
    {
      OFFSET 0 23.15396 4.99043
      CHANNELS 3 Zrotation Xrotation Yrotation
      JOINT spine2
      {
        OFFSET 0 20.79997 -5.064912
        CHANNELS 3 Zrotation Xrotation Yrotation
        JOINT neck
        {
          OFFSET 0 14.38658 9.616178
          CHANNELS 3 Zrotation Xrotation Yrotation
          End Site
          {
            OFFSET 0 20 0
          }
        }
      }
      JOINT right_manubrium
      {
        OFFSET -5.722621 16.35077 3.967754
        CHANNELS 3 Zrotation Xrotation Yrotation
        JOINT right_clavicle
        {
          OFFSET -13.16364 1.694482 -4.693211
          CHANNELS 3 Zrotation Xrotation Yrotation
          JOINT right_humerus
          {
            OFFSET -28.5034 -0.3100689 -2.792744
            CHANNELS 3 Zrotation Xrotation Yrotation
            JOINT right_radius
            {
              OFFSET -25.15693 0.02248979 -1.271978
              CHANNELS 3 Zrotation Xrotation Yrotation
              End Site
              {
                OFFSET -15 0 0
              }
            }
          }
        }
      }
      JOINT left_manubrium
      {
        OFFSET 5.722621 16.35077 3.967754
        CHANNELS 3 Zrotation Xrotation Yrotation
        JOINT left_clavicle
        {
          OFFSET 13.16364 1.694482 -4.693211
          CHANNELS 3 Zrotation Xrotation Yrotation
          JOINT left_humerus
          {
            OFFSET 29.39168 -1.063119 -2.237045
            CHANNELS 3 Zrotation Xrotation Yrotation
            JOINT left_radius
            {
              OFFSET 24.59957 -0.9528479 0.9047498
              CHANNELS 3 Zrotation Xrotation Yrotation
              End Site
              {
                OFFSET 15 -0 -0
              }
            }
          }
        }
      }
    }
  }
}
MOTION
Frames: 11
Frame Time: 0.0416666666667
654.1892 104.1943 3064.335 2.926077 -4.561525 20.49656 0.6098633 -25.96357 0.5915742 -0 15.79077 -0 -0.2070455 -2.47906 -7.946702 -5.164913 15.95934 -8.056693 -0 14.09727 -0 -4.788719 -20.13329 12.52222 1.240699 -3.367215 7.414755 -0.5340124 15.60749 -4.239538 2.196296 20.50712 2.098175 -0.6425643 -19.68199 6.045204 -3.271645 -30.16637 11.99266 88.83306 15.74863 -6.701904 -0 0 27.00817 -25.21718 17.20311 18.4407 1.718672 -20.10639 -6.665602 -96.27287 14.45575 36.62164 0 0 -8.307422 3.631073 15.24662 10.31979
656.263 103.0236 3070.535 2.886824 -4.184741 21.00288 1.107607 -26.45755 0.7945321 -0 11.50676 -0 -0.1506398 -2.038003 -8.204286 -5.127864 17.98991 -7.724397 -0 18.02937 -0 -5.655521 -19.7316 12.06399 1.241681 -3.369375 7.414811 -0.5324607 15.61081 -4.241939 2.195642 20.50465 2.097128 -0.6435817 -19.68192 6.044092 -3.270915 -30.1691 11.99443 88.8341 15.74539 -6.705235 -0 0 27.01138 -25.21855 17.2099 18.4422 1.717493 -20.10943 -6.668086 -96.27111 14.45098 36.62406 0 0 -8.311786 3.632551 15.24769 10.31769
658.368 102.2389 3077.179 2.744869 -4.23456 21.37137 2.085973 -25.35447 1.670076 -0 10.53696 -0 -0.2736457 -1.582987 -8.531637 -4.84115 19.0736 -7.414817 -0 23.98652 -0 -6.638201 -18.12744 11.93994 1.242752 -3.371684 7.416096 -0.5314504 15.61379 -4.243434 2.194989 20.50136 2.09558 -0.6451867 -19.68126 6.042868 -3.27032 -30.17437 11.99607 88.83287 15.74339 -6.703915 -0 0 27.02033 -25.21988 17.2177 18.44536 1.715639 -20.11072 -6.669641 -96.27077 14.44562 36.631 0 0 -8.314377 3.632367 15.24762 10.31768
660.4729 102.0421 3084.133 2.505587 -4.754977 21.52312 3.388929 -22.59806 2.996034 -0 12.40384 -0 -0.7317751 -1.689537 -8.822552 -4.268401 18.79119 -7.207944 -0 31.59997 -0 -7.68247 -15.42444 12.13643 1.24385 -3.374005 7.418529 -0.5310358 15.61626 -4.243945 2.194376 20.49745 2.093621 -0.6472891 -19.68004 6.041603 -3.269911 -30.18187 11.99748 88.82947 15.74275 -6.698067 -0 0 27.03446 -25.22108 17.22604 18.44995 1.71322 -20.11022 -6.670175 -96.27185 14.43997 36.64203 0 0 -8.315098 3.630534 15.24638 10.31975
662.5315 102.4851 3091.145 2.282161 -5.632683 21.36912 4.624504 -18.45641 4.27283 -0 15.6672 -0 -1.589133 -2.808908 -8.923995 -3.565015 16.75425 -7.122942 -0 40.05092 -0 -8.513572 -12.20023 12.65333 1.244916 -3.376208 7.421991 -0.5312426 15.61808 -4.243444 2.193835 20.49313 2.091349 -0.6497877 -19.67835 6.040367 -3.269733 -30.19121 11.99857 88.82412 15.74352 -6.687988 -0 0 27.05302 -25.22205 17.23444 18.45574 1.710358 -20.10794 -6.669647 -96.27428 14.43437 36.65657 0 0 -8.313944 3.627133 15.24402 10.32383
664.5057 103.4329 3097.934 2.288005 -6.644054 20.8903 5.35978 -13.60324 5.041625 -0 18.44141 -0 -2.633961 -4.788586 -8.686979 -3.029743 12.8688 -7.108915 -0 48.1479 -0 -8.755351 -9.386438 13.50651 1.245898 -3.378177 7.426324 -0.5320696 15.61914 -4.241944 2.193397 20.4886 2.088874 -0.6525662 -19.67629 6.039225 -3.269813 -30.20196 11.99928 88.81706 15.74569 -6.674143 -0 0 27.07513 -25.22273 17.24247 18.46244 1.70719 -20.10397 -6.668062 -96.27796 14.4291 36.67392 0 0 -8.310984 3.622309 15.24063 10.32975
666.3914 104.6304 3104.335 2.668525 -7.567005 20.1916 5.390327 -8.72755 5.287696 -0 19.49256 -0 -3.305727 -6.806725 -8.035504 -2.816675 7.483072 -7.066764 -0 54.57638 -0 -8.393631 -7.659631 14.66349 1.246739 -3.379798 7.431309 -0.5334864 15.61936 -4.239505 2.193086 20.48411 2.086327 -0.6554774 -19.67396 6.038241 -3.270153 -30.21355 11.99957 88.80866 15.74918 -6.657205 -0 0 27.09965 -25.22309 17.24967 18.4697 1.703887 -20.09848 -6.665482 -96.2827 14.42445 36.69319 0 0 -8.306346 3.616299 15.23635 10.33723
668.2136 105.8127 3110.369 3.276898 -8.211547 19.42646 4.877418 -4.002713 5.369473 -0 18.75751 -0 -3.138465 -8.22312 -7.051535 -2.696643 1.176965 -6.856131 -0 58.00476 -0 -7.959681 -6.963572 15.99029 1.247378 -3.380958 7.436646 -0.5354258 15.61871 -4.236242 2.192927 20.47995 2.083876 -0.6583294 -19.67147 6.037486 -3.27072 -30.22526 11.99939 88.79936 15.75379 -6.638134 -0 0 27.1251 -25.2231 17.25556 18.47708 1.70066 -20.09179 -6.662043 -96.28825 14.42074 36.71321 0 0 -8.300226 3.609456 15.23147 10.34582
669.9994 106.7321 3116.144 3.755117 -8.464342 18.66459 4.239757 0.6991023 5.450661 -0 16.83954 -0 -2.381421 -9.31131 -5.941911 -2.267978 -5.474677 -6.373078 -0 57.2587 -0 -7.829448 -6.887572 17.34918 1.247753 -3.381551 7.441953 -0.5377762 15.61718 -4.232343 2.192941 20.47646 2.081718 -0.6608912 -19.66898 6.037025 -3.271452 -30.23621 11.99876 88.78977 15.75925 -6.618203 -0 0 27.14965 -25.22278 17.25967 18.48406 1.697763 -20.08431 -6.657961 -96.29427 14.4183 36.73254 0 0 -8.292928 3.60226 15.22635 10.35491
671.7827 107.168 3121.757 3.857292 -8.366662 17.88619 3.8293 5.233156 5.365792 -0 14.54742 -0 -1.670164 -10.71117 -4.844358 -1.373127 -11.84808 -5.651165 -0 52.14016 -0 -7.788939 -7.141168 18.65491 1.247814 -3.381494 7.446803 -0.5403805 15.61483 -4.228068 2.193138 20.47397 2.080047 -0.6629296 -19.66668 6.036916 -3.27228 -30.24547 11.9977 88.78061 15.76516 -6.59892 -0 0 27.17132 -25.22214 17.26156 18.49006 1.695454 -20.07658 -6.653521 -96.30033 14.41739 36.74961 0 0 -8.284898 3.595266 15.22142 10.36378
673.6217 107.0163 3127.289 3.566813 -7.982153 17.06347 3.688556 9.239384 5.032901 -0 12.66783 -0 -1.230518 -12.57638 -3.785533 -0.2062865 -17.32831 -4.831576 -0 43.93173 -0 -7.565693 -7.49744 19.74517 1.247542 -3.380759 7.450794 -0.5430486 15.61181 -4.223731 2.193512 20.47271 2.07902 -0.6642591 -19.66473 6.037185 -3.273144 -30.25224 11.99626 88.7726 15.77109 -6.581819 -0 0 27.18827 -25.22122 17.26097 18.49457 1.693943 -20.06919 -6.649055 -96.30597 14.41816 36.76298 0 0 -8.276714 3.589028 15.21706 10.37175
